<svg xmlns="http://www.w3.org/2000/svg" xmlns:xlink="http://www.w3.org/1999/xlink" width="500" zoomAndPan="magnify" viewBox="0 0 375 374.999991" height="500" preserveAspectRatio="xMidYMid meet" version="1.0"><defs><clipPath id="eee4101041"><path d="M 81.5 178.898438 L 293.75 178.898438 L 293.75 275.648438 L 81.5 275.648438 Z M 81.5 178.898438 " clip-rule="nonzero"/></clipPath><clipPath id="713e0b15d4"><path d="M 151 99.375 L 177 99.375 L 177 126 L 151 126 Z M 151 99.375 " clip-rule="nonzero"/></clipPath><clipPath id="73b11af949"><path d="M 177.304688 126.503906 L 195.398438 126.503906 L 195.398438 146.398438 L 177.304688 146.398438 Z M 177.304688 126.503906 " clip-rule="nonzero"/></clipPath><clipPath id="40c1386ed5"><path d="M 135.398438 187.457031 L 137.390625 187.457031 L 137.390625 189.371094 L 135.398438 189.371094 Z M 135.398438 187.457031 " clip-rule="nonzero"/></clipPath></defs><rect x="-37.5" width="450" fill="#ffffff" y="-37.499999" height="449.999989" fill-opacity="1"/><rect x="-37.5" width="450" fill="#ffffff" y="-37.499999" height="449.999989" fill-opacity="1"/><rect x="-37.5" width="450" fill="#1f2954" y="-37.499999" height="449.999989" fill-opacity="1"/><path fill="#ffffff" d="M 121.402344 231.28125 C 119.523438 230.414062 118.113281 228.667969 117.734375 226.515625 C 117.605469 225.804688 117.605469 225.101562 117.707031 224.421875 C 116.742188 223.871094 115.84375 223.222656 115.023438 222.492188 L 109.824219 222.492188 C 108.386719 222.492188 107.21875 223.660156 107.21875 225.09375 L 107.21875 234.203125 C 107.21875 235.640625 108.386719 236.804688 109.824219 236.804688 L 125.308594 236.804688 C 123.128906 235.863281 121.570312 233.761719 121.402344 231.28125 Z M 121.402344 231.28125 " fill-opacity="1" fill-rule="nonzero"/><path fill="#ffffff" d="M 152.964844 206.949219 C 152.964844 206.980469 152.972656 207.015625 152.96875 207.046875 C 152.953125 207.585938 152.875 208.078125 152.359375 208.917969 C 151.835938 209.738281 150.773438 210.898438 148.71875 212.210938 C 144.632812 214.855469 136.671875 217.894531 123.234375 220.253906 C 120.402344 220.757812 118.511719 223.457031 119.015625 226.289062 C 119.464844 228.8125 121.660156 230.585938 124.136719 230.585938 C 124.441406 230.585938 124.746094 230.558594 125.050781 230.503906 C 135.707031 228.613281 143.464844 226.332031 149.21875 223.722656 C 154.945312 221.109375 158.808594 218.128906 161.136719 214.519531 C 162.683594 212.125 163.402344 209.460938 163.386719 207.046875 C 163.355469 202.839844 161.546875 199.679688 160.007812 197.5625 C 159.976562 197.519531 159.949219 197.484375 159.917969 197.445312 C 158.378906 195.390625 156.960938 194.21875 156.753906 194.039062 C 154.53125 192.214844 151.25 192.53125 149.421875 194.75 C 148.390625 196.003906 148.042969 197.59375 148.332031 199.070312 C 148.316406 199.109375 148.292969 199.148438 148.277344 199.1875 C 146.445312 203.925781 144.617188 208.660156 142.789062 213.394531 C 145.214844 212.375 146.863281 211.542969 148.015625 211.117188 C 149.625 210.523438 151.332031 208.902344 152.964844 206.949219 Z M 152.964844 206.949219 " fill-opacity="1" fill-rule="nonzero"/><path fill="#ffffff" d="M 123.007812 218.972656 C 130.410156 217.671875 135.769531 216.066406 139.683594 214.621094 C 139.824219 214.128906 139.941406 213.625 140.03125 213.109375 C 141.429688 205.148438 136.105469 197.5625 128.136719 196.167969 C 120.171875 194.769531 112.578125 200.089844 111.179688 208.050781 C 110.105469 214.179688 113.015625 220.082031 118.046875 223.113281 C 118.828125 221.027344 120.65625 219.390625 123.007812 218.972656 Z M 123.007812 218.972656 " fill-opacity="1" fill-rule="nonzero"/><g clip-path="url(#eee4101041)"><path fill="#ffffff" d="M 84.105469 275.621094 L 99.730469 275.621094 C 101.167969 275.621094 102.335938 274.453125 102.335938 273.015625 L 102.335938 269.113281 L 272.917969 269.113281 L 272.917969 273.015625 C 272.917969 274.453125 274.082031 275.621094 275.523438 275.621094 L 291.148438 275.621094 C 292.585938 275.621094 293.75 274.453125 293.75 273.015625 L 293.75 226.613281 C 293.75 225.175781 292.585938 224.011719 291.148438 224.011719 L 275.523438 224.011719 C 274.082031 224.011719 272.917969 225.175781 272.917969 226.613281 L 272.917969 238.757812 L 253.402344 238.757812 C 253.558594 238.28125 253.734375 237.808594 253.921875 237.339844 C 254.097656 236.902344 254.289062 236.46875 254.488281 236.039062 L 257.011719 236.039062 C 261.507812 236.039062 265.148438 232.398438 265.148438 227.910156 C 265.148438 226.3125 264.683594 224.828125 263.886719 223.574219 C 264.21875 223.253906 264.539062 222.949219 264.851562 222.660156 C 267.289062 220.382812 269.121094 219.023438 269.121094 219.023438 C 260.980469 205.6875 178.933594 187.800781 169.816406 196.257812 C 168.742188 197.253906 167.554688 198.867188 166.324219 200.910156 C 165.039062 200.382812 163.785156 199.804688 162.570312 199.175781 C 163.96875 201.726562 164.667969 204.320312 164.691406 207.039062 C 164.699219 208.371094 164.496094 209.730469 164.117188 211.054688 C 166.851562 204.835938 169.597656 200.011719 171.589844 198.160156 C 171.859375 197.914062 173.566406 196.671875 180.914062 196.671875 C 192.800781 196.671875 212.554688 199.921875 231.234375 204.953125 C 250.847656 210.234375 261.394531 215.320312 265.363281 218.703125 C 260.488281 222.839844 249.347656 233.578125 249.917969 244.957031 C 249.878906 245.097656 248.796875 247.378906 234.332031 247.378906 C 225.546875 247.378906 214.335938 246.566406 203.496094 245.777344 L 203.363281 245.769531 C 192.5 244.980469 181.265625 244.167969 172.496094 244.167969 C 163.652344 244.167969 158.398438 244.953125 155.457031 246.714844 C 155.210938 246.863281 155.019531 246.957031 154.871094 247.023438 C 154.265625 245.085938 154.597656 237.816406 159.25 223.777344 C 160.316406 220.558594 161.476562 217.421875 162.664062 214.496094 C 162.527344 214.742188 162.386719 214.984375 162.230469 215.222656 C 159.777344 219.03125 155.695312 222.199219 149.757812 224.910156 C 143.589844 227.707031 135.582031 229.957031 125.277344 231.785156 C 124.902344 231.851562 124.519531 231.886719 124.140625 231.886719 C 123.667969 231.886719 123.207031 231.832031 122.765625 231.734375 C 123.191406 234.179688 125.320312 236.039062 127.890625 236.039062 L 153.167969 236.039062 C 152.96875 236.976562 152.796875 237.882812 152.648438 238.757812 L 102.335938 238.757812 L 102.335938 181.511719 C 102.335938 180.074219 101.167969 178.910156 99.730469 178.910156 L 84.105469 178.910156 C 82.667969 178.910156 81.5 180.074219 81.5 181.511719 L 81.5 273.015625 C 81.5 274.453125 82.667969 275.621094 84.105469 275.621094 Z M 84.105469 275.621094 " fill-opacity="1" fill-rule="nonzero"/></g><g clip-path="url(#713e0b15d4)"><path fill="#ffffff" d="M 153.984375 106.597656 C 152.570312 106.492188 151.433594 105.542969 151.121094 104.242188 C 150.8125 102.953125 151.167969 101.269531 152.445312 100.664062 C 153.4375 100.195312 154.765625 100.070312 155.855469 100.011719 C 160.734375 99.738281 165.621094 99.574219 170.507812 99.40625 C 171.226562 99.382812 171.960938 99.5 172.671875 99.632812 C 174.152344 99.910156 175.242188 100.730469 175.667969 102.199219 C 176.09375 103.675781 175.535156 104.863281 174.453125 105.9375 C 170.617188 109.765625 166.828125 113.644531 163.023438 117.507812 C 162.890625 117.640625 162.796875 117.816406 162.460938 118.289062 C 163.761719 118.25 164.824219 118.214844 165.886719 118.179688 C 168.265625 118.109375 170.640625 117.992188 173.019531 117.984375 C 173.71875 117.984375 174.472656 118.167969 175.105469 118.472656 C 176.335938 119.066406 176.980469 120.15625 176.964844 121.515625 C 176.953125 122.964844 176.214844 124.082031 174.878906 124.617188 C 174.105469 124.925781 173.210938 125.023438 172.367188 125.046875 C 166.882812 125.183594 161.394531 125.257812 155.910156 125.386719 C 154.195312 125.425781 152.546875 125.390625 151.660156 123.578125 C 150.789062 121.796875 151.382812 120.269531 152.5 118.804688 C 155.4375 114.945312 158.835938 111.53125 162.429688 108.296875 C 163.203125 107.601562 163.929688 106.855469 164.699219 106.160156 C 161.523438 106.285156 154.375 106.628906 153.984375 106.597656 " fill-opacity="1" fill-rule="nonzero"/></g><g clip-path="url(#73b11af949)"><path fill="#ffffff" d="M 185.46875 142.042969 C 187.042969 141.960938 188.136719 141.90625 189.226562 141.84375 C 190.28125 141.78125 191.335938 141.675781 192.390625 141.644531 C 194.21875 141.597656 195.335938 142.410156 195.398438 143.785156 C 195.460938 145.160156 194.375 146.089844 192.59375 146.175781 C 191.40625 146.230469 190.21875 146.300781 189.03125 146.316406 C 186.652344 146.355469 184.269531 146.421875 181.894531 146.359375 C 179.578125 146.296875 179.042969 144.96875 179.09375 143.484375 C 179.128906 142.527344 180.558594 140.695312 181.363281 139.71875 C 183.296875 137.378906 187.691406 131.828125 188.140625 131.144531 C 185.730469 131.320312 181.707031 131.53125 180.070312 131.484375 C 178.597656 131.4375 177.546875 130.792969 177.34375 129.59375 C 177.160156 128.5 177.851562 127.40625 179.148438 127.089844 C 180.105469 126.855469 183.132812 126.90625 184.117188 126.851562 C 187.019531 126.683594 188.859375 126.585938 190.835938 126.519531 C 194.039062 126.40625 194.949219 128.746094 193.457031 130.953125 C 191.429688 133.960938 186.238281 141.058594 185.46875 142.042969 " fill-opacity="1" fill-rule="nonzero"/></g><path fill="#ffffff" d="M 163.605469 161.335938 C 165.691406 161.261719 167.269531 161.199219 168.847656 161.15625 C 169.371094 161.140625 169.910156 161.117188 170.421875 161.210938 C 171.15625 161.34375 171.605469 161.90625 171.566406 162.601562 C 171.53125 163.289062 171.296875 163.648438 170.863281 163.957031 C 170.472656 164.234375 169.648438 164.285156 169.128906 164.316406 C 166.359375 164.476562 163.585938 164.601562 160.816406 164.734375 C 160.488281 164.75 160.148438 164.757812 159.828125 164.699219 C 158.515625 164.453125 157.929688 163.320312 158.636719 162.199219 C 159.164062 161.371094 159.878906 160.664062 160.519531 159.90625 C 161.949219 158.214844 163.386719 156.523438 165.058594 154.554688 C 163.886719 154.554688 160.980469 154.640625 160.152344 154.652344 C 159.425781 154.667969 158.503906 154.375 158.332031 153.621094 C 158.140625 152.789062 158.542969 151.964844 159.347656 151.71875 C 160.351562 151.414062 165.277344 151.332031 167.589844 151.332031 C 168.984375 151.332031 169.726562 151.652344 170.027344 152.207031 C 170.488281 153.050781 170.03125 153.824219 169.53125 154.394531 C 167.921875 156.226562 166.320312 158.070312 164.722656 159.914062 C 164.4375 160.246094 164.179688 160.601562 163.605469 161.335938 " fill-opacity="1" fill-rule="nonzero"/><path fill="#ffffff" d="M 147.226562 167.015625 C 149.464844 167.070312 151.351562 169.066406 151.273438 171.296875 C 151.191406 173.5625 149.230469 175.355469 146.941406 175.253906 C 144.730469 175.160156 142.988281 173.320312 143.015625 171.109375 C 143.042969 168.832031 144.972656 166.957031 147.226562 167.015625 " fill-opacity="1" fill-rule="nonzero"/><path fill="#ffffff" d="M 140.320312 177.996094 C 141.660156 178.046875 142.800781 179.300781 142.726562 180.640625 C 142.660156 181.90625 141.5 183.015625 140.246094 183.015625 C 138.914062 183.019531 137.730469 181.804688 137.746094 180.457031 C 137.765625 179.089844 138.964844 177.9375 140.320312 177.996094 " fill-opacity="1" fill-rule="nonzero"/><g clip-path="url(#40c1386ed5)"><path fill="#ffffff" d="M 137.382812 188.417969 C 137.375 189.042969 136.988281 189.304688 136.46875 189.363281 C 135.878906 189.425781 135.394531 189.0625 135.398438 188.417969 C 135.398438 187.847656 135.914062 187.472656 136.335938 187.464844 C 136.875 187.449219 137.390625 187.835938 137.382812 188.417969 " fill-opacity="1" fill-rule="nonzero"/></g></svg>